<svg width="13" height="13" viewBox="0 0 13 13" fill="none" xmlns="http://www.w3.org/2000/svg">
<g opacity="0.65">
<path d="M3.40523 3.4103C3.40523 5.12925 4.7986 6.52285 6.51761 6.52285C8.23658 6.52285 9.62999 5.12929 9.62999 3.4103C9.62999 1.69151 8.23658 0.297918 6.51761 0.297918C4.79865 0.297918 3.40523 1.69147 3.40523 3.4103ZM8.74781 3.41026C8.74781 4.64201 7.74933 5.64046 6.51761 5.64046C5.28586 5.64046 4.28741 4.64197 4.28741 3.41026C4.28741 2.17867 5.28585 1.18022 6.51761 1.18022C7.74937 1.18022 8.74781 2.17871 8.74781 3.41026Z" fill="black" stroke="black" stroke-width="0.170002"/>
<path d="M1.53154 12.0428H1.61654V11.9578V11.4236C1.61654 9.89695 2.85432 8.65933 4.381 8.65933H8.655C10.1817 8.65933 11.4195 9.89695 11.4195 11.4236V11.9578V12.0428H11.5045H12.2167H12.3017V11.9578V11.4236C12.3017 9.40949 10.6691 7.77695 8.655 7.77695H4.381C2.36687 7.77695 0.734335 9.40949 0.734335 11.4236V11.9578V12.0428H0.819336H1.53154Z" fill="black" stroke="black" stroke-width="0.170002"/>
</g>
</svg>
