<svg width="167" height="54" viewBox="0 0 167 54" fill="none" xmlns="http://www.w3.org/2000/svg">
<path d="M19.6575 30.3585H8.75997C8.75997 32.1188 8.75997 33.7255 8.75997 35.1786C8.75997 36.6036 8.77394 37.9449 8.80188 39.2023H21.7532V43.3098H2.97587C3.00382 41.9686 3.03176 40.795 3.0597 39.7891C3.11559 38.7552 3.1575 37.6934 3.18544 36.6036C3.21339 35.4859 3.24133 34.2145 3.26927 32.7895C3.29721 31.3644 3.31118 29.5761 3.31118 27.4245C3.31118 25.2729 3.29721 23.0655 3.26927 20.8021C3.24133 18.5109 3.18544 16.2335 3.10162 13.9702H20.9569V18.0777H8.8438C8.78791 19.1675 8.75997 20.4109 8.75997 21.8081C8.75997 23.1773 8.75997 24.742 8.75997 26.5024H19.6575V30.3585ZM24.5523 34.2145C24.5523 32.1188 24.7758 30.3026 25.2229 28.7658C25.6979 27.201 26.3546 25.9156 27.1928 24.9097C28.0311 23.8758 29.0091 23.1074 30.1268 22.6044C31.2724 22.1015 32.5159 21.85 33.8571 21.85C34.7233 21.85 35.4359 21.9338 35.9947 22.1015C36.5815 22.2412 37.2242 22.311 37.9228 22.311C38.2301 22.311 38.5235 22.2831 38.8029 22.2272C39.0824 22.1713 39.5015 22.0596 40.0604 21.8919L40.5214 30.0232L36.4139 30.568C36.4418 30.2886 36.4558 30.0371 36.4558 29.8136C36.4837 29.5621 36.4977 29.2967 36.4977 29.0172C36.4977 27.4804 36.2183 26.3906 35.6594 25.748C35.1285 25.0773 34.5557 24.742 33.941 24.742C32.5997 24.742 31.6078 25.4406 30.9651 26.8377C30.3224 28.2348 30.0011 30.2886 30.0011 32.999C30.0011 35.2903 30.3643 36.9389 31.0908 37.9449C31.8453 38.9508 32.935 39.4538 34.3601 39.4538C35.3381 39.4538 36.3021 39.2861 37.2521 38.9508C38.2301 38.5875 39.0824 38.2522 39.8089 37.9449V41.6333C38.9147 42.4436 37.8389 43.0024 36.5815 43.3098C35.352 43.6451 34.0946 43.8128 32.8093 43.8128C31.7754 43.8128 30.7555 43.687 29.7496 43.4356C28.7716 43.1841 27.8914 42.723 27.109 42.0524C26.3546 41.3538 25.7398 40.3759 25.2648 39.1184C24.7898 37.861 24.5523 36.2264 24.5523 34.2145ZM52.8941 25.2869C51.5808 25.2869 50.5749 25.9855 49.8764 27.3826C49.1778 28.7518 48.8285 30.6379 48.8285 33.041C48.8285 35.3881 49.1079 37.2184 49.6668 38.5316C50.2536 39.817 51.2595 40.4597 52.6846 40.4597C53.9979 40.4597 55.0178 39.7471 55.7443 38.3221C56.4708 36.8691 56.834 34.941 56.834 32.538C56.834 31.4203 56.7781 30.4144 56.6664 29.5202C56.5546 28.626 56.345 27.8716 56.0377 27.2569C55.7582 26.6142 55.3531 26.1252 54.8222 25.7899C54.3192 25.4546 53.6765 25.2869 52.8941 25.2869ZM43.3378 33.1667C43.3378 31.4343 43.5753 29.8695 44.0503 28.4724C44.5254 27.0752 45.182 25.8877 46.0203 24.9097C46.8865 23.9317 47.9344 23.1773 49.1638 22.6463C50.3933 22.1154 51.7625 21.85 53.2714 21.85C56.1215 21.85 58.329 22.7581 59.8937 24.5744C61.4865 26.3906 62.2828 28.9334 62.2828 32.2027C62.2828 33.9631 62.0453 35.5558 61.5703 36.9808C61.0953 38.4059 60.4246 39.6354 59.5584 40.6692C58.6922 41.6752 57.6444 42.4576 56.4149 43.0164C55.2134 43.5473 53.8721 43.8128 52.3912 43.8128C50.9941 43.8128 49.7366 43.5613 48.6189 43.0583C47.5012 42.5554 46.5512 41.8428 45.7688 40.9207C44.9864 39.9986 44.3857 38.8809 43.9665 37.5676C43.5474 36.2543 43.3378 34.7874 43.3378 33.1667ZM90.2694 13.9702C90.1856 14.8644 90.1157 15.7865 90.0598 16.7365C90.0319 17.6586 90.0039 18.6925 89.976 19.8381C89.976 20.9558 89.962 22.2132 89.9341 23.6104C89.9341 25.0075 89.9341 26.6002 89.9341 28.3885C89.9341 30.0651 89.9341 31.5879 89.9341 32.9571C89.9341 34.2984 89.9341 35.5558 89.9341 36.7294C89.962 37.9029 89.976 39.0206 89.976 40.0825C90.0039 41.1443 90.0319 42.2201 90.0598 43.3098H84.15C84.1779 42.1362 84.2059 41.1024 84.2338 40.2082C84.2618 39.2861 84.2897 38.35 84.3176 37.4C84.3735 36.4499 84.4154 35.43 84.4434 34.3403C84.4713 33.2505 84.4853 31.9233 84.4853 30.3585H72.1627C72.1627 31.6997 72.1627 32.9571 72.1627 34.1307C72.1627 35.2763 72.1627 36.3801 72.1627 37.4419C72.1906 38.4758 72.2046 39.4817 72.2046 40.4597C72.2325 41.4097 72.2605 42.3598 72.2884 43.3098H66.3786C66.4065 41.9686 66.4345 40.795 66.4624 39.7891C66.5183 38.7552 66.5602 37.6934 66.5881 36.6036C66.6161 35.4859 66.644 34.2145 66.672 32.7895C66.6999 31.3644 66.7139 29.5761 66.7139 27.4245C66.7139 25.2729 66.6999 23.1353 66.672 21.0117C66.644 18.8601 66.5881 16.6527 66.5043 14.3893L72.498 13.9702C72.4142 14.7805 72.3443 15.6188 72.2884 16.485C72.2605 17.3233 72.2325 18.2454 72.2046 19.2513C72.2046 20.2293 72.1906 21.3191 72.1627 22.5206C72.1627 23.6942 72.1627 25.0215 72.1627 26.5024H84.4853C84.4853 24.5185 84.4574 22.5346 84.4015 20.5507C84.3735 18.5388 84.3316 16.485 84.2757 14.3893L90.2694 13.9702ZM99.9118 43.8128C98.1515 43.8128 96.7264 43.212 95.6366 42.0105C94.5748 40.809 94.0439 39.2442 94.0439 37.3162C94.0439 35.3043 94.6307 33.6976 95.8043 32.4961C96.9779 31.2945 98.5427 30.6938 100.499 30.6938C101.309 30.6938 102.119 30.8056 102.93 31.0291C103.74 31.2526 104.466 31.574 105.109 31.9931V29.6459C105.109 28.3326 104.858 27.4105 104.355 26.8796C103.852 26.3487 102.986 26.0833 101.756 26.0833C100.918 26.0833 100.024 26.195 99.0736 26.4186C98.1515 26.6142 97.411 26.8657 96.8521 27.173L95.5528 23.1493C95.972 22.9817 96.4749 22.814 97.0617 22.6463C97.6485 22.4787 98.2772 22.339 98.9478 22.2272C99.6184 22.1154 100.303 22.0316 101.002 21.9757C101.7 21.8919 102.343 21.85 102.93 21.85C107.848 21.85 110.306 24.253 110.306 29.0591C110.306 29.4783 110.279 30.093 110.223 30.9034C110.195 31.7137 110.153 32.5659 110.097 33.4601C110.069 34.3263 110.027 35.1366 109.971 35.8911C109.943 36.6455 109.929 37.1764 109.929 37.4838C109.929 38.1265 110.027 38.5875 110.223 38.867C110.418 39.1464 110.781 39.2861 111.312 39.2861C111.676 39.2861 112.095 39.2302 112.57 39.1184L111.899 43.1422C111.452 43.2819 111.033 43.3936 110.642 43.4775C110.279 43.5613 109.901 43.6032 109.51 43.6032C108.476 43.6032 107.61 43.3238 106.911 42.7649C106.213 42.1781 105.794 41.3538 105.654 40.292C105.095 41.3818 104.313 42.248 103.307 42.8907C102.301 43.5054 101.169 43.8128 99.9118 43.8128ZM101.924 39.9567C102.818 39.9567 103.572 39.6354 104.187 38.9927C104.83 38.35 105.151 37.5397 105.151 36.5617C105.151 35.7234 104.9 35.0528 104.397 34.5498C103.894 34.0469 103.195 33.7954 102.301 33.7954C101.379 33.7954 100.652 34.0748 100.121 34.6337C99.5905 35.1925 99.3251 35.9609 99.3251 36.9389C99.3251 37.861 99.5486 38.6015 99.9957 39.1604C100.471 39.6913 101.113 39.9567 101.924 39.9567ZM129.898 43.8128C129.339 43.0024 128.892 42.3039 128.557 41.7171C128.221 41.1303 127.97 40.5156 127.802 39.8729C127.383 40.3479 126.936 40.8229 126.461 41.298C125.986 41.745 125.455 42.1642 124.868 42.5554C124.309 42.9186 123.709 43.212 123.066 43.4356C122.423 43.687 121.725 43.8128 120.97 43.8128C120.272 43.8128 119.587 43.687 118.916 43.4356C118.274 43.1841 117.701 42.7649 117.198 42.1781C116.695 41.5914 116.29 40.795 115.982 39.7891C115.675 38.7831 115.521 37.5257 115.521 36.0168C115.521 35.6536 115.521 35.0947 115.521 34.3403C115.549 33.5579 115.577 32.7476 115.605 31.9093C115.633 31.0431 115.647 30.2188 115.647 29.4364C115.675 28.654 115.689 28.0532 115.689 27.6341C115.689 26.712 115.619 25.8318 115.48 24.9935C115.368 24.1273 115.158 23.4148 114.851 22.8559L120.593 21.85C120.789 22.4927 120.9 23.1912 120.928 23.9457C120.984 24.7001 121.012 25.3568 121.012 25.9156C121.012 26.7259 120.984 27.5363 120.928 28.3466C120.9 29.1569 120.858 29.9533 120.803 30.7357C120.775 31.4901 120.733 32.2166 120.677 32.9152C120.649 33.5858 120.635 34.1726 120.635 34.6756C120.635 36.3242 120.914 37.4559 121.473 38.0706C122.032 38.6853 122.8 38.9927 123.778 38.9927C124.589 38.9927 125.287 38.853 125.874 38.5736C126.461 38.2941 126.992 37.9588 127.467 37.5676C127.439 37.0647 127.425 36.5058 127.425 35.8911C127.425 35.2484 127.425 34.5219 127.425 33.7116C127.425 32.4262 127.425 31.2666 127.425 30.2327C127.425 29.1989 127.411 28.2348 127.383 27.3407C127.383 26.4465 127.369 25.6082 127.341 24.8259C127.341 24.0155 127.327 23.1912 127.299 22.353H132.958C132.93 23.0236 132.902 23.778 132.874 24.6163C132.846 25.4546 132.804 26.3487 132.748 27.2988C132.72 28.2209 132.692 29.1849 132.664 30.1908C132.636 31.1688 132.622 32.1188 132.622 33.041C132.622 34.1307 132.65 35.0249 132.706 35.7234C132.762 36.394 132.874 36.9948 133.041 37.5257C133.209 38.0287 133.433 38.5037 133.712 38.9508C133.991 39.3699 134.355 39.8589 134.802 40.4178L129.898 43.8128ZM143.863 11.0362C143.779 12.0142 143.709 13.0202 143.653 14.054C143.625 15.0879 143.597 16.2335 143.569 17.491C143.569 18.7204 143.555 20.1036 143.527 21.6404C143.527 23.1773 143.527 24.9376 143.527 26.9215C143.527 28.7658 143.527 30.4423 143.527 31.9512C143.527 33.4321 143.527 34.8153 143.527 36.1007C143.555 37.386 143.569 38.6155 143.569 39.7891C143.597 40.9347 143.625 42.1083 143.653 43.3098H137.995C138.023 41.8568 138.051 40.5715 138.079 39.4538C138.134 38.3361 138.176 37.1764 138.204 35.9749C138.232 34.7454 138.26 33.3623 138.288 31.8255C138.316 30.2607 138.33 28.3047 138.33 25.9575C138.33 23.5824 138.316 21.2073 138.288 18.8322C138.26 16.4291 138.204 13.9702 138.12 11.4554L143.863 11.0362Z" fill="white"/>
<circle cx="161.761" cy="5.23922" r="5.23922" fill="#E1EAE9"/>
</svg>
